<mxfile host="app.diagrams.net" modified="2020-11-11T11:33:33.758Z" agent="5.0 (Windows NT 10.0; Win64; x64) AppleWebKit/537.36 (KHTML, like Gecko) Chrome/86.0.4240.183 Safari/537.36" etag="6F-d3lC9t11J-pEspvnH" version="13.9.2" type="github" pages="5">
  <diagram name="Page-1" id="0783ab3e-0a74-02c8-0abd-f7b4e66b4bec">
    <mxGraphModel dx="-68" dy="437" grid="1" gridSize="10" guides="1" tooltips="1" connect="1" arrows="1" fold="1" page="1" pageScale="1" pageWidth="850" pageHeight="1100" background="#ffffff" math="0" shadow="0">
      <root>
        <mxCell id="0" />
        <mxCell id="1" parent="0" />
        <mxCell id="eoZGQBolCjSW6dowUGA1-11" value="Система" style="swimlane;whiteSpace=wrap" parent="1" vertex="1">
          <mxGeometry x="1170" y="140" width="280" height="520" as="geometry" />
        </mxCell>
        <mxCell id="5psqAf0z91V_lSissanz-1" value="Обработка&#xa; введенных &#xa;данных" style="" parent="eoZGQBolCjSW6dowUGA1-11" vertex="1">
          <mxGeometry x="30" y="130" width="110" height="50" as="geometry" />
        </mxCell>
        <mxCell id="5psqAf0z91V_lSissanz-2" value="есть ошибки" style="rhombus;fillColor=#ffffc0;strokeColor=#ff0000;" parent="eoZGQBolCjSW6dowUGA1-11" vertex="1">
          <mxGeometry x="160" y="135" width="90" height="40" as="geometry" />
        </mxCell>
        <mxCell id="5psqAf0z91V_lSissanz-3" value="" style="endArrow=open;strokeColor=#FF0000;endFill=1;rounded=0" parent="eoZGQBolCjSW6dowUGA1-11" source="5psqAf0z91V_lSissanz-1" target="5psqAf0z91V_lSissanz-2" edge="1">
          <mxGeometry relative="1" as="geometry" />
        </mxCell>
        <mxCell id="5psqAf0z91V_lSissanz-10" value="Синтаксический&#xa;анализ текста" style="" parent="eoZGQBolCjSW6dowUGA1-11" vertex="1">
          <mxGeometry x="50" y="260" width="110" height="48" as="geometry" />
        </mxCell>
        <mxCell id="5psqAf0z91V_lSissanz-7" value="Нет" style="elbow=horizontal;align=left;verticalAlign=top;endArrow=open;endSize=8;strokeColor=#FF0000;endFill=1;rounded=0;entryX=0.5;entryY=0;entryDx=0;entryDy=0;exitX=1;exitY=0.5;exitDx=0;exitDy=0;edgeStyle=orthogonalEdgeStyle;" parent="eoZGQBolCjSW6dowUGA1-11" source="5psqAf0z91V_lSissanz-2" target="5psqAf0z91V_lSissanz-10" edge="1">
          <mxGeometry x="-0.7687" y="-26" relative="1" as="geometry">
            <mxPoint x="-64.75" y="325" as="targetPoint" />
            <Array as="points">
              <mxPoint x="260" y="155" />
              <mxPoint x="260" y="230" />
              <mxPoint x="105" y="230" />
            </Array>
            <mxPoint as="offset" />
            <mxPoint x="255" y="250" as="sourcePoint" />
          </mxGeometry>
        </mxCell>
        <mxCell id="5psqAf0z91V_lSissanz-11" value="Формирование&#xa;метаграфа" style="" parent="eoZGQBolCjSW6dowUGA1-11" vertex="1">
          <mxGeometry x="50" y="340" width="110" height="48" as="geometry" />
        </mxCell>
        <mxCell id="5psqAf0z91V_lSissanz-12" value="" style="endArrow=open;strokeColor=#FF0000;endFill=1;rounded=0;entryX=0.5;entryY=0;entryDx=0;entryDy=0;edgeStyle=orthogonalEdgeStyle;exitX=0.5;exitY=1;exitDx=0;exitDy=0;" parent="eoZGQBolCjSW6dowUGA1-11" source="5psqAf0z91V_lSissanz-10" target="5psqAf0z91V_lSissanz-11" edge="1">
          <mxGeometry relative="1" as="geometry">
            <mxPoint x="35" y="291" as="targetPoint" />
            <mxPoint x="-10" y="291" as="sourcePoint" />
          </mxGeometry>
        </mxCell>
        <mxCell id="eoZGQBolCjSW6dowUGA1-1" value="Клиент" style="swimlane;whiteSpace=wrap" parent="1" vertex="1">
          <mxGeometry x="890" y="140" width="280" height="520" as="geometry" />
        </mxCell>
        <mxCell id="eoZGQBolCjSW6dowUGA1-2" value="" style="ellipse;shape=startState;fillColor=#000000;strokeColor=#ff0000;" parent="eoZGQBolCjSW6dowUGA1-1" vertex="1">
          <mxGeometry x="120.5" y="40" width="30" height="30" as="geometry" />
        </mxCell>
        <mxCell id="eoZGQBolCjSW6dowUGA1-7" value="" style="edgeStyle=orthogonalEdgeStyle;elbow=horizontal;verticalAlign=bottom;endArrow=open;endSize=8;strokeColor=#FF0000;endFill=1;rounded=0;entryX=0.5;entryY=0;entryDx=0;entryDy=0;exitX=0.5;exitY=1;exitDx=0;exitDy=0;" parent="eoZGQBolCjSW6dowUGA1-1" edge="1">
          <mxGeometry x="-114.5" y="-98" as="geometry">
            <mxPoint x="115" y="110" as="targetPoint" />
            <mxPoint x="365" y="80" as="sourcePoint" />
            <Array as="points">
              <mxPoint x="75" y="270" />
              <mxPoint x="10" y="270" />
              <mxPoint x="10" y="80" />
              <mxPoint x="115" y="80" />
            </Array>
          </mxGeometry>
        </mxCell>
        <mxCell id="eoZGQBolCjSW6dowUGA1-8" value="Вывод&#xa;результата" style="" parent="eoZGQBolCjSW6dowUGA1-1" vertex="1">
          <mxGeometry x="75.5" y="381" width="120" height="58" as="geometry" />
        </mxCell>
        <mxCell id="eoZGQBolCjSW6dowUGA1-9" value="ё" style="ellipse;html=1;shape=endState;fillColor=#000000;strokeColor=#ff0000;" parent="eoZGQBolCjSW6dowUGA1-1" vertex="1">
          <mxGeometry x="120.5" y="470" width="30" height="30" as="geometry" />
        </mxCell>
        <mxCell id="eoZGQBolCjSW6dowUGA1-10" value="" style="elbow=horizontal;verticalAlign=bottom;endArrow=open;endSize=8;strokeColor=#FF0000;endFill=1;rounded=0;entryX=0.5;entryY=0;entryDx=0;entryDy=0;exitX=0.5;exitY=1;exitDx=0;exitDy=0;" parent="eoZGQBolCjSW6dowUGA1-1" source="eoZGQBolCjSW6dowUGA1-8" target="eoZGQBolCjSW6dowUGA1-9" edge="1">
          <mxGeometry x="-94.5" y="-58" as="geometry">
            <mxPoint x="139" y="442" as="targetPoint" />
            <mxPoint x="139" y="420" as="sourcePoint" />
          </mxGeometry>
        </mxCell>
        <mxCell id="eoZGQBolCjSW6dowUGA1-19" value="Ввод&#xa;имени файла" style="" parent="eoZGQBolCjSW6dowUGA1-1" vertex="1">
          <mxGeometry x="80.75" y="130" width="109.5" height="50" as="geometry" />
        </mxCell>
        <mxCell id="5psqAf0z91V_lSissanz-8" value="Ошибка&#xa;неправильного&#xa;файла&#xa;(или имени файла)" style="" parent="eoZGQBolCjSW6dowUGA1-1" vertex="1">
          <mxGeometry x="85" y="220" width="110" height="63" as="geometry" />
        </mxCell>
        <mxCell id="5psqAf0z91V_lSissanz-9" value="" style="edgeStyle=orthogonalEdgeStyle;elbow=horizontal;verticalAlign=bottom;endArrow=open;endSize=8;strokeColor=#FF0000;endFill=1;rounded=0;entryX=0.5;entryY=0;entryDx=0;entryDy=0;exitX=0.5;exitY=1;exitDx=0;exitDy=0;" parent="eoZGQBolCjSW6dowUGA1-1" source="5psqAf0z91V_lSissanz-8" target="eoZGQBolCjSW6dowUGA1-19" edge="1">
          <mxGeometry x="-994.5" y="-228" as="geometry">
            <mxPoint x="115" y="110" as="targetPoint" />
            <mxPoint x="85" y="262" as="sourcePoint" />
            <Array as="points">
              <mxPoint x="140" y="310" />
              <mxPoint x="10" y="310" />
              <mxPoint x="10" y="100" />
              <mxPoint x="136" y="100" />
            </Array>
          </mxGeometry>
        </mxCell>
        <mxCell id="5psqAf0z91V_lSissanz-16" value="" style="endArrow=open;strokeColor=#FF0000;endFill=1;rounded=0;entryX=0.5;entryY=0;entryDx=0;entryDy=0;edgeStyle=orthogonalEdgeStyle;exitX=0.5;exitY=1;exitDx=0;exitDy=0;" parent="eoZGQBolCjSW6dowUGA1-1" source="eoZGQBolCjSW6dowUGA1-2" target="eoZGQBolCjSW6dowUGA1-19" edge="1">
          <mxGeometry relative="1" as="geometry">
            <mxPoint x="315" y="245" as="targetPoint" />
            <mxPoint x="200.25" y="165" as="sourcePoint" />
          </mxGeometry>
        </mxCell>
        <mxCell id="5psqAf0z91V_lSissanz-5" value="" style="endArrow=open;strokeColor=#FF0000;endFill=1;rounded=0;entryX=0;entryY=0.5;entryDx=0;entryDy=0;edgeStyle=orthogonalEdgeStyle;exitX=1;exitY=0.5;exitDx=0;exitDy=0;" parent="1" source="eoZGQBolCjSW6dowUGA1-19" target="5psqAf0z91V_lSissanz-1" edge="1">
          <mxGeometry relative="1" as="geometry">
            <mxPoint x="1205" y="285" as="targetPoint" />
            <mxPoint x="1070" y="285" as="sourcePoint" />
          </mxGeometry>
        </mxCell>
        <mxCell id="5psqAf0z91V_lSissanz-6" value="Да" style="elbow=horizontal;align=left;verticalAlign=top;endArrow=open;endSize=8;strokeColor=#FF0000;endFill=1;rounded=0;exitX=0.5;exitY=1;exitDx=0;exitDy=0;edgeStyle=orthogonalEdgeStyle;entryX=0.5;entryY=0;entryDx=0;entryDy=0;" parent="1" source="5psqAf0z91V_lSissanz-2" target="5psqAf0z91V_lSissanz-8" edge="1">
          <mxGeometry x="-0.6925" y="-20" relative="1" as="geometry">
            <mxPoint x="1030" y="430" as="targetPoint" />
            <mxPoint x="1380" y="410" as="sourcePoint" />
            <Array as="points">
              <mxPoint x="1375" y="340" />
              <mxPoint x="1030" y="340" />
            </Array>
            <mxPoint as="offset" />
          </mxGeometry>
        </mxCell>
        <mxCell id="5psqAf0z91V_lSissanz-15" value="" style="endArrow=open;strokeColor=#FF0000;endFill=1;rounded=0;entryX=0.5;entryY=0;entryDx=0;entryDy=0;edgeStyle=orthogonalEdgeStyle;exitX=0.5;exitY=1;exitDx=0;exitDy=0;" parent="1" source="5psqAf0z91V_lSissanz-11" target="eoZGQBolCjSW6dowUGA1-8" edge="1">
          <mxGeometry relative="1" as="geometry">
            <mxPoint x="1285" y="668" as="targetPoint" />
            <mxPoint x="1285" y="626" as="sourcePoint" />
            <Array as="points">
              <mxPoint x="1275" y="560" />
              <mxPoint x="1153" y="560" />
              <mxPoint x="1153" y="490" />
              <mxPoint x="1026" y="490" />
            </Array>
          </mxGeometry>
        </mxCell>
      </root>
    </mxGraphModel>
  </diagram>
  <diagram name="Copy of Page-1" id="khYxhzUTa5DY9N7jtD2O">
    <mxGraphModel dx="-68" dy="437" grid="1" gridSize="10" guides="1" tooltips="1" connect="1" arrows="1" fold="1" page="1" pageScale="1" pageWidth="850" pageHeight="1100" background="#ffffff" math="0" shadow="0">
      <root>
        <mxCell id="XMtStSPXKnILXch3mj1N-0" />
        <mxCell id="XMtStSPXKnILXch3mj1N-1" parent="XMtStSPXKnILXch3mj1N-0" />
        <mxCell id="XMtStSPXKnILXch3mj1N-2" value="Система" style="swimlane;whiteSpace=wrap" parent="XMtStSPXKnILXch3mj1N-1" vertex="1">
          <mxGeometry x="1170" y="140" width="280" height="380" as="geometry" />
        </mxCell>
        <mxCell id="XMtStSPXKnILXch3mj1N-6" value="Синтаксический&#xa;анализ текста" style="" parent="XMtStSPXKnILXch3mj1N-2" vertex="1">
          <mxGeometry x="50" y="155" width="110" height="48" as="geometry" />
        </mxCell>
        <mxCell id="XMtStSPXKnILXch3mj1N-8" value="Формирование&#xa;метаграфа" style="" parent="XMtStSPXKnILXch3mj1N-2" vertex="1">
          <mxGeometry x="50" y="235" width="110" height="48" as="geometry" />
        </mxCell>
        <mxCell id="XMtStSPXKnILXch3mj1N-9" value="" style="endArrow=open;strokeColor=#FF0000;endFill=1;rounded=0;entryX=0.5;entryY=0;entryDx=0;entryDy=0;edgeStyle=orthogonalEdgeStyle;exitX=0.5;exitY=1;exitDx=0;exitDy=0;" parent="XMtStSPXKnILXch3mj1N-2" source="XMtStSPXKnILXch3mj1N-6" target="XMtStSPXKnILXch3mj1N-8" edge="1">
          <mxGeometry relative="1" as="geometry">
            <mxPoint x="35" y="266" as="targetPoint" />
            <mxPoint x="-10" y="266" as="sourcePoint" />
          </mxGeometry>
        </mxCell>
        <mxCell id="XMtStSPXKnILXch3mj1N-10" value="Клиент" style="swimlane;whiteSpace=wrap" parent="XMtStSPXKnILXch3mj1N-1" vertex="1">
          <mxGeometry x="890" y="140" width="280" height="380" as="geometry" />
        </mxCell>
        <mxCell id="XMtStSPXKnILXch3mj1N-11" value="" style="ellipse;shape=startState;fillColor=#000000;strokeColor=#ff0000;" parent="XMtStSPXKnILXch3mj1N-10" vertex="1">
          <mxGeometry x="120.5" y="45" width="30" height="30" as="geometry" />
        </mxCell>
        <mxCell id="XMtStSPXKnILXch3mj1N-13" value="Вывод&#xa;результата" style="" parent="XMtStSPXKnILXch3mj1N-10" vertex="1">
          <mxGeometry x="75.5" y="235" width="120" height="58" as="geometry" />
        </mxCell>
        <mxCell id="XMtStSPXKnILXch3mj1N-14" value="ё" style="ellipse;html=1;shape=endState;fillColor=#000000;strokeColor=#ff0000;" parent="XMtStSPXKnILXch3mj1N-10" vertex="1">
          <mxGeometry x="120.5" y="325" width="30" height="30" as="geometry" />
        </mxCell>
        <mxCell id="XMtStSPXKnILXch3mj1N-15" value="" style="elbow=horizontal;verticalAlign=bottom;endArrow=open;endSize=8;strokeColor=#FF0000;endFill=1;rounded=0;entryX=0.5;entryY=0;entryDx=0;entryDy=0;exitX=0.5;exitY=1;exitDx=0;exitDy=0;" parent="XMtStSPXKnILXch3mj1N-10" source="XMtStSPXKnILXch3mj1N-13" target="XMtStSPXKnILXch3mj1N-14" edge="1">
          <mxGeometry x="-94.5" y="-83" as="geometry">
            <mxPoint x="139" y="417" as="targetPoint" />
            <mxPoint x="139" y="395" as="sourcePoint" />
          </mxGeometry>
        </mxCell>
        <mxCell id="XMtStSPXKnILXch3mj1N-19" value="" style="endArrow=open;strokeColor=#FF0000;endFill=1;rounded=0;entryX=0.5;entryY=0;entryDx=0;entryDy=0;edgeStyle=orthogonalEdgeStyle;exitX=0.5;exitY=1;exitDx=0;exitDy=0;" parent="XMtStSPXKnILXch3mj1N-10" source="XMtStSPXKnILXch3mj1N-11" target="-3jfU6_Dl4vZfbX1pmt6-0" edge="1">
          <mxGeometry relative="1" as="geometry">
            <mxPoint x="135.5" y="105" as="targetPoint" />
            <mxPoint x="200.25" y="140" as="sourcePoint" />
          </mxGeometry>
        </mxCell>
        <mxCell id="-3jfU6_Dl4vZfbX1pmt6-0" value="Запрос&#xa;проведения&#xa;синтакс. анализа" style="" parent="XMtStSPXKnILXch3mj1N-10" vertex="1">
          <mxGeometry x="80.5" y="105" width="110" height="50" as="geometry" />
        </mxCell>
        <mxCell id="XMtStSPXKnILXch3mj1N-20" value="" style="endArrow=open;strokeColor=#FF0000;endFill=1;rounded=0;entryX=0.5;entryY=0;entryDx=0;entryDy=0;edgeStyle=orthogonalEdgeStyle;exitX=1;exitY=0.5;exitDx=0;exitDy=0;" parent="XMtStSPXKnILXch3mj1N-1" source="-3jfU6_Dl4vZfbX1pmt6-0" target="XMtStSPXKnILXch3mj1N-6" edge="1">
          <mxGeometry relative="1" as="geometry">
            <mxPoint x="1200" y="270" as="targetPoint" />
            <mxPoint x="1080.25" y="270" as="sourcePoint" />
          </mxGeometry>
        </mxCell>
        <mxCell id="XMtStSPXKnILXch3mj1N-22" value="" style="endArrow=open;strokeColor=#FF0000;endFill=1;rounded=0;entryX=0.5;entryY=0;entryDx=0;entryDy=0;edgeStyle=orthogonalEdgeStyle;exitX=0.5;exitY=1;exitDx=0;exitDy=0;" parent="XMtStSPXKnILXch3mj1N-1" source="XMtStSPXKnILXch3mj1N-8" target="XMtStSPXKnILXch3mj1N-13" edge="1">
          <mxGeometry relative="1" as="geometry">
            <mxPoint x="1285" y="643" as="targetPoint" />
            <mxPoint x="1285" y="601" as="sourcePoint" />
            <Array as="points">
              <mxPoint x="1275" y="455" />
              <mxPoint x="1153" y="455" />
              <mxPoint x="1153" y="345" />
              <mxPoint x="1026" y="345" />
            </Array>
          </mxGeometry>
        </mxCell>
      </root>
    </mxGraphModel>
  </diagram>
  <diagram id="yzN8L24s_lwzbY5qgHOw" name="Page-2">
    <mxGraphModel dx="782" dy="437" grid="1" gridSize="10" guides="1" tooltips="1" connect="1" arrows="1" fold="1" page="1" pageScale="1" pageWidth="1654" pageHeight="1169" math="0" shadow="0">
      <root>
        <mxCell id="yIj8lRWFxCpw4po-QEsE-0" />
        <mxCell id="yIj8lRWFxCpw4po-QEsE-1" parent="yIj8lRWFxCpw4po-QEsE-0" />
        <mxCell id="yIj8lRWFxCpw4po-QEsE-2" value="Клиент" style="swimlane;whiteSpace=wrap" parent="yIj8lRWFxCpw4po-QEsE-1" vertex="1">
          <mxGeometry x="410" y="240" width="280" height="1190" as="geometry" />
        </mxCell>
        <mxCell id="yIj8lRWFxCpw4po-QEsE-3" value="" style="ellipse;shape=startState;fillColor=#000000;strokeColor=#ff0000;" parent="yIj8lRWFxCpw4po-QEsE-2" vertex="1">
          <mxGeometry x="100" y="40" width="30" height="30" as="geometry" />
        </mxCell>
        <mxCell id="yIj8lRWFxCpw4po-QEsE-4" value="" style="edgeStyle=elbowEdgeStyle;elbow=horizontal;verticalAlign=bottom;endArrow=open;endSize=8;strokeColor=#FF0000;endFill=1;rounded=0" parent="yIj8lRWFxCpw4po-QEsE-2" source="yIj8lRWFxCpw4po-QEsE-3" target="yIj8lRWFxCpw4po-QEsE-5" edge="1">
          <mxGeometry x="100" y="40" as="geometry">
            <mxPoint x="115" y="110" as="targetPoint" />
          </mxGeometry>
        </mxCell>
        <mxCell id="yIj8lRWFxCpw4po-QEsE-5" value="Ввод пути с &#xa;изображением лица" style="" parent="yIj8lRWFxCpw4po-QEsE-2" vertex="1">
          <mxGeometry x="56" y="110" width="120" height="50" as="geometry" />
        </mxCell>
        <mxCell id="yIj8lRWFxCpw4po-QEsE-7" value="Ошибка, &#xa;неподдерживаемый&#xa;формат" style="" parent="yIj8lRWFxCpw4po-QEsE-2" vertex="1">
          <mxGeometry x="60" y="202" width="110" height="50" as="geometry" />
        </mxCell>
        <mxCell id="tYPvXyNMyAclM_ogBzkL-7" value="Ошибка, нет лица&#xa;на фото" style="" parent="yIj8lRWFxCpw4po-QEsE-2" vertex="1">
          <mxGeometry x="80" y="560" width="120" height="58" as="geometry" />
        </mxCell>
        <mxCell id="tYPvXyNMyAclM_ogBzkL-9" value="" style="elbow=horizontal;verticalAlign=bottom;endArrow=open;endSize=8;strokeColor=#FF0000;endFill=1;rounded=0;exitX=0.5;exitY=1;exitDx=0;exitDy=0;" parent="yIj8lRWFxCpw4po-QEsE-2" source="tYPvXyNMyAclM_ogBzkL-8" edge="1">
          <mxGeometry x="-479.5" y="-18" as="geometry">
            <mxPoint x="140" y="650" as="targetPoint" />
            <mxPoint x="141" y="708" as="sourcePoint" />
          </mxGeometry>
        </mxCell>
        <mxCell id="tYPvXyNMyAclM_ogBzkL-8" value="ё" style="ellipse;html=1;shape=endState;fillColor=#000000;strokeColor=#ff0000;" parent="yIj8lRWFxCpw4po-QEsE-2" vertex="1">
          <mxGeometry x="125" y="650" width="30" height="30" as="geometry" />
        </mxCell>
        <mxCell id="tYPvXyNMyAclM_ogBzkL-11" value="" style="elbow=horizontal;verticalAlign=bottom;endArrow=open;endSize=8;strokeColor=#FF0000;endFill=1;rounded=0;exitX=0.5;exitY=1;exitDx=0;exitDy=0;" parent="yIj8lRWFxCpw4po-QEsE-2" source="tYPvXyNMyAclM_ogBzkL-7" target="tYPvXyNMyAclM_ogBzkL-8" edge="1">
          <mxGeometry x="-479.5" y="-18" as="geometry">
            <mxPoint x="550" y="890" as="targetPoint" />
            <mxPoint x="550" y="858" as="sourcePoint" />
          </mxGeometry>
        </mxCell>
        <mxCell id="tYPvXyNMyAclM_ogBzkL-31" value="Вывод признаков" style="" parent="yIj8lRWFxCpw4po-QEsE-2" vertex="1">
          <mxGeometry x="87" y="780" width="106" height="60" as="geometry" />
        </mxCell>
        <mxCell id="tYPvXyNMyAclM_ogBzkL-35" value="корректно?" style="rhombus;fillColor=#ffffc0;strokeColor=#ff0000;" parent="yIj8lRWFxCpw4po-QEsE-2" vertex="1">
          <mxGeometry x="99" y="864" width="80" height="40" as="geometry" />
        </mxCell>
        <mxCell id="tYPvXyNMyAclM_ogBzkL-36" value="" style="elbow=horizontal;verticalAlign=bottom;endArrow=open;endSize=8;strokeColor=#FF0000;endFill=1;rounded=0;exitX=0.5;exitY=1;exitDx=0;exitDy=0;entryX=0.5;entryY=0;entryDx=0;entryDy=0;" parent="yIj8lRWFxCpw4po-QEsE-2" source="tYPvXyNMyAclM_ogBzkL-31" target="tYPvXyNMyAclM_ogBzkL-35" edge="1">
          <mxGeometry x="-879.5" y="-248" as="geometry">
            <mxPoint x="150" y="660" as="targetPoint" />
            <mxPoint x="150" y="628" as="sourcePoint" />
          </mxGeometry>
        </mxCell>
        <mxCell id="tYPvXyNMyAclM_ogBzkL-44" value="сохранить?" style="rhombus;fillColor=#ffffc0;strokeColor=#ff0000;" parent="yIj8lRWFxCpw4po-QEsE-2" vertex="1">
          <mxGeometry x="99" y="980" width="80" height="40" as="geometry" />
        </mxCell>
        <mxCell id="tYPvXyNMyAclM_ogBzkL-45" value="Нет" style="elbow=horizontal;align=left;verticalAlign=top;endArrow=open;endSize=8;strokeColor=#FF0000;endFill=1;rounded=0;exitX=0;exitY=0.5;exitDx=0;exitDy=0;" parent="yIj8lRWFxCpw4po-QEsE-2" source="tYPvXyNMyAclM_ogBzkL-44" edge="1">
          <mxGeometry x="-0.5712" y="-20" relative="1" as="geometry">
            <mxPoint x="60" y="1050" as="targetPoint" />
            <Array as="points">
              <mxPoint x="60" y="1000" />
            </Array>
            <mxPoint as="offset" />
            <mxPoint x="80" y="1006" as="sourcePoint" />
          </mxGeometry>
        </mxCell>
        <mxCell id="tYPvXyNMyAclM_ogBzkL-46" value="ё" style="ellipse;html=1;shape=endState;fillColor=#000000;strokeColor=#ff0000;" parent="yIj8lRWFxCpw4po-QEsE-2" vertex="1">
          <mxGeometry x="45" y="1050" width="30" height="30" as="geometry" />
        </mxCell>
        <mxCell id="pd-DcGtbzofmi_1o58jI-0" value="Сообщение о сохранени" style="" parent="yIj8lRWFxCpw4po-QEsE-2" vertex="1">
          <mxGeometry x="94" y="1100" width="106" height="60" as="geometry" />
        </mxCell>
        <mxCell id="yIj8lRWFxCpw4po-QEsE-12" value="Система" style="swimlane;whiteSpace=wrap" parent="yIj8lRWFxCpw4po-QEsE-1" vertex="1">
          <mxGeometry x="690" y="240" width="280" height="1190" as="geometry" />
        </mxCell>
        <mxCell id="yIj8lRWFxCpw4po-QEsE-16" value="Проверка формата&#xa;файла" style="" parent="yIj8lRWFxCpw4po-QEsE-12" vertex="1">
          <mxGeometry x="20" y="182" width="110" height="50" as="geometry" />
        </mxCell>
        <mxCell id="yIj8lRWFxCpw4po-QEsE-17" value="есть ошибки" style="rhombus;fillColor=#ffffc0;strokeColor=#ff0000;" parent="yIj8lRWFxCpw4po-QEsE-12" vertex="1">
          <mxGeometry x="150" y="192" width="80" height="40" as="geometry" />
        </mxCell>
        <mxCell id="yIj8lRWFxCpw4po-QEsE-18" value="Нет" style="elbow=horizontal;align=left;verticalAlign=top;endArrow=open;endSize=8;strokeColor=#FF0000;endFill=1;rounded=0;entryX=0.5;entryY=0;entryDx=0;entryDy=0;exitX=1;exitY=0.5;exitDx=0;exitDy=0;" parent="yIj8lRWFxCpw4po-QEsE-12" source="yIj8lRWFxCpw4po-QEsE-17" target="yIj8lRWFxCpw4po-QEsE-20" edge="1">
          <mxGeometry x="-0.5712" y="-20" relative="1" as="geometry">
            <mxPoint x="189.64285714285734" y="325" as="targetPoint" />
            <Array as="points">
              <mxPoint x="255.5" y="212" />
              <mxPoint x="255.5" y="312" />
              <mxPoint x="95.5" y="312" />
            </Array>
            <mxPoint as="offset" />
          </mxGeometry>
        </mxCell>
        <mxCell id="yIj8lRWFxCpw4po-QEsE-19" value="" style="endArrow=open;strokeColor=#FF0000;endFill=1;rounded=0" parent="yIj8lRWFxCpw4po-QEsE-12" source="yIj8lRWFxCpw4po-QEsE-16" target="yIj8lRWFxCpw4po-QEsE-17" edge="1">
          <mxGeometry relative="1" as="geometry" />
        </mxCell>
        <mxCell id="yIj8lRWFxCpw4po-QEsE-20" value="Поиск по хешу&#xa;изображения" style="" parent="yIj8lRWFxCpw4po-QEsE-12" vertex="1">
          <mxGeometry x="40" y="332" width="110" height="50" as="geometry" />
        </mxCell>
        <mxCell id="yIj8lRWFxCpw4po-QEsE-21" value="совпадение" style="rhombus;fillColor=#ffffc0;strokeColor=#ff0000;" parent="yIj8lRWFxCpw4po-QEsE-12" vertex="1">
          <mxGeometry x="55" y="402" width="80" height="40" as="geometry" />
        </mxCell>
        <mxCell id="yIj8lRWFxCpw4po-QEsE-22" value="" style="elbow=horizontal;verticalAlign=bottom;endArrow=open;endSize=8;strokeColor=#FF0000;endFill=1;rounded=0;exitX=0.5;exitY=1;exitDx=0;exitDy=0;entryX=0.5;entryY=0;entryDx=0;entryDy=0;" parent="yIj8lRWFxCpw4po-QEsE-12" source="yIj8lRWFxCpw4po-QEsE-20" target="yIj8lRWFxCpw4po-QEsE-21" edge="1">
          <mxGeometry x="-394.5" y="-98" as="geometry">
            <mxPoint x="85.35714285714289" y="120" as="targetPoint" />
            <mxPoint x="85" y="80" as="sourcePoint" />
          </mxGeometry>
        </mxCell>
        <mxCell id="tYPvXyNMyAclM_ogBzkL-0" value="Нет" style="elbow=horizontal;align=left;verticalAlign=top;endArrow=open;endSize=8;strokeColor=#FF0000;endFill=1;rounded=0;exitX=1;exitY=0.5;exitDx=0;exitDy=0;" parent="yIj8lRWFxCpw4po-QEsE-12" source="yIj8lRWFxCpw4po-QEsE-21" edge="1">
          <mxGeometry x="-0.5712" y="-20" relative="1" as="geometry">
            <mxPoint x="100" y="520" as="targetPoint" />
            <Array as="points">
              <mxPoint x="210" y="422" />
              <mxPoint x="210" y="470" />
              <mxPoint x="100" y="470" />
            </Array>
            <mxPoint as="offset" />
            <mxPoint x="204.5" y="490" as="sourcePoint" />
          </mxGeometry>
        </mxCell>
        <mxCell id="tYPvXyNMyAclM_ogBzkL-1" value="Поиск лица&#xa;на фото" style="" parent="yIj8lRWFxCpw4po-QEsE-12" vertex="1">
          <mxGeometry x="40" y="520" width="110" height="50" as="geometry" />
        </mxCell>
        <mxCell id="tYPvXyNMyAclM_ogBzkL-2" value="найдено?" style="rhombus;fillColor=#ffffc0;strokeColor=#ff0000;" parent="yIj8lRWFxCpw4po-QEsE-12" vertex="1">
          <mxGeometry x="59" y="592" width="80" height="40" as="geometry" />
        </mxCell>
        <mxCell id="tYPvXyNMyAclM_ogBzkL-3" value="" style="elbow=horizontal;verticalAlign=bottom;endArrow=open;endSize=8;strokeColor=#FF0000;endFill=1;rounded=0;exitX=0.5;exitY=1;exitDx=0;exitDy=0;entryX=0.5;entryY=0;entryDx=0;entryDy=0;" parent="yIj8lRWFxCpw4po-QEsE-12" target="tYPvXyNMyAclM_ogBzkL-2" edge="1">
          <mxGeometry x="-1080.5" y="-148" as="geometry">
            <mxPoint x="-600.6428571428571" y="70" as="targetPoint" />
            <mxPoint x="99" y="572" as="sourcePoint" />
          </mxGeometry>
        </mxCell>
        <mxCell id="tYPvXyNMyAclM_ogBzkL-4" value="Нет" style="elbow=horizontal;align=left;verticalAlign=top;endArrow=open;endSize=8;strokeColor=#FF0000;endFill=1;rounded=0;exitX=0;exitY=0.5;exitDx=0;exitDy=0;" parent="yIj8lRWFxCpw4po-QEsE-12" source="tYPvXyNMyAclM_ogBzkL-2" edge="1">
          <mxGeometry x="-0.5712" y="-20" relative="1" as="geometry">
            <mxPoint x="-140" y="560" as="targetPoint" />
            <Array as="points">
              <mxPoint x="-30" y="612" />
              <mxPoint x="-30" y="510" />
              <mxPoint x="-140" y="510" />
            </Array>
            <mxPoint as="offset" />
            <mxPoint x="-481.5" y="440" as="sourcePoint" />
          </mxGeometry>
        </mxCell>
        <mxCell id="tYPvXyNMyAclM_ogBzkL-5" value="Да" style="elbow=horizontal;align=left;verticalAlign=top;endArrow=open;endSize=8;strokeColor=#FF0000;endFill=1;rounded=0;exitX=0.5;exitY=1;exitDx=0;exitDy=0;edgeStyle=orthogonalEdgeStyle;entryX=0.5;entryY=0;entryDx=0;entryDy=0;" parent="yIj8lRWFxCpw4po-QEsE-12" source="tYPvXyNMyAclM_ogBzkL-2" target="tYPvXyNMyAclM_ogBzkL-12" edge="1">
          <mxGeometry x="-0.6925" y="-20" relative="1" as="geometry">
            <mxPoint x="120" y="670" as="targetPoint" />
            <mxPoint x="99" y="632" as="sourcePoint" />
            <mxPoint as="offset" />
            <Array as="points" />
          </mxGeometry>
        </mxCell>
        <mxCell id="tYPvXyNMyAclM_ogBzkL-12" value="Выравнивание,&#xa;обрезка лица" style="" parent="yIj8lRWFxCpw4po-QEsE-12" vertex="1">
          <mxGeometry x="44" y="680" width="110" height="50" as="geometry" />
        </mxCell>
        <mxCell id="tYPvXyNMyAclM_ogBzkL-13" value="Выделение&#xa;признаков" style="" parent="yIj8lRWFxCpw4po-QEsE-12" vertex="1">
          <mxGeometry x="46" y="750" width="106" height="50" as="geometry" />
        </mxCell>
        <mxCell id="tYPvXyNMyAclM_ogBzkL-27" value="" style="elbow=horizontal;verticalAlign=bottom;endArrow=open;endSize=8;strokeColor=#FF0000;endFill=1;rounded=0;exitX=0.5;exitY=1;exitDx=0;exitDy=0;entryX=0.5;entryY=0;entryDx=0;entryDy=0;" parent="yIj8lRWFxCpw4po-QEsE-12" source="tYPvXyNMyAclM_ogBzkL-12" target="tYPvXyNMyAclM_ogBzkL-13" edge="1">
          <mxGeometry x="-799.5" y="3" as="geometry">
            <mxPoint x="118" y="940" as="targetPoint" />
            <mxPoint x="230" y="879" as="sourcePoint" />
          </mxGeometry>
        </mxCell>
        <mxCell id="tYPvXyNMyAclM_ogBzkL-28" value="Увеличение&#xa;счётчика&#xa;обращений &#xa;к сервисам" style="" parent="yIj8lRWFxCpw4po-QEsE-12" vertex="1">
          <mxGeometry x="46" y="820" width="106" height="60" as="geometry" />
        </mxCell>
        <mxCell id="tYPvXyNMyAclM_ogBzkL-29" value="" style="elbow=horizontal;verticalAlign=bottom;endArrow=open;endSize=8;strokeColor=#FF0000;endFill=1;rounded=0;exitX=0.5;exitY=1;exitDx=0;exitDy=0;entryX=0.5;entryY=0;entryDx=0;entryDy=0;" parent="yIj8lRWFxCpw4po-QEsE-12" target="tYPvXyNMyAclM_ogBzkL-28" edge="1">
          <mxGeometry x="-1489.5" y="-167" as="geometry">
            <mxPoint x="-572" y="770" as="targetPoint" />
            <mxPoint x="98.99999999999977" y="800" as="sourcePoint" />
          </mxGeometry>
        </mxCell>
        <mxCell id="tYPvXyNMyAclM_ogBzkL-52" value="Сохранение&#xa;признаков по&#xa;хешу" style="" parent="yIj8lRWFxCpw4po-QEsE-12" vertex="1">
          <mxGeometry x="40" y="1060" width="106" height="60" as="geometry" />
        </mxCell>
        <mxCell id="yIj8lRWFxCpw4po-QEsE-23" value="" style="endArrow=open;strokeColor=#FF0000;endFill=1;rounded=0;entryX=0;entryY=0.5;entryDx=0;entryDy=0;edgeStyle=orthogonalEdgeStyle;" parent="yIj8lRWFxCpw4po-QEsE-1" source="yIj8lRWFxCpw4po-QEsE-5" target="yIj8lRWFxCpw4po-QEsE-16" edge="1">
          <mxGeometry relative="1" as="geometry">
            <mxPoint x="525" y="460" as="targetPoint" />
          </mxGeometry>
        </mxCell>
        <mxCell id="yIj8lRWFxCpw4po-QEsE-25" value="Да" style="elbow=horizontal;align=left;verticalAlign=top;endArrow=open;endSize=8;strokeColor=#FF0000;endFill=1;rounded=0;exitX=0.5;exitY=1;exitDx=0;exitDy=0;entryX=0.5;entryY=0;entryDx=0;entryDy=0;edgeStyle=orthogonalEdgeStyle;" parent="yIj8lRWFxCpw4po-QEsE-1" source="yIj8lRWFxCpw4po-QEsE-17" target="yIj8lRWFxCpw4po-QEsE-7" edge="1">
          <mxGeometry x="-0.6925" y="-20" relative="1" as="geometry">
            <mxPoint x="555.5" y="432" as="targetPoint" />
            <mxPoint x="930.0000000000002" y="462" as="sourcePoint" />
            <Array as="points">
              <mxPoint x="880.5" y="512" />
              <mxPoint x="615.5" y="512" />
              <mxPoint x="615.5" y="422" />
              <mxPoint x="525.5" y="422" />
            </Array>
            <mxPoint as="offset" />
          </mxGeometry>
        </mxCell>
        <mxCell id="yIj8lRWFxCpw4po-QEsE-28" value="Да" style="elbow=horizontal;align=left;verticalAlign=top;endArrow=open;endSize=8;strokeColor=#FF0000;endFill=1;rounded=0;exitX=0.5;exitY=1;exitDx=0;exitDy=0;edgeStyle=orthogonalEdgeStyle;entryX=0.25;entryY=0;entryDx=0;entryDy=0;" parent="yIj8lRWFxCpw4po-QEsE-1" source="yIj8lRWFxCpw4po-QEsE-21" target="tYPvXyNMyAclM_ogBzkL-31" edge="1">
          <mxGeometry x="-0.7877" y="-22" relative="1" as="geometry">
            <mxPoint x="635.5" y="732" as="targetPoint" />
            <mxPoint x="785" y="682" as="sourcePoint" />
            <mxPoint x="1" as="offset" />
            <Array as="points">
              <mxPoint x="785" y="692" />
              <mxPoint x="470" y="692" />
              <mxPoint x="470" y="970" />
              <mxPoint x="524" y="970" />
            </Array>
          </mxGeometry>
        </mxCell>
        <mxCell id="yIj8lRWFxCpw4po-QEsE-29" value="Эксперт" style="swimlane;whiteSpace=wrap" parent="yIj8lRWFxCpw4po-QEsE-1" vertex="1">
          <mxGeometry x="970" y="240" width="280" height="1190" as="geometry" />
        </mxCell>
        <mxCell id="yIj8lRWFxCpw4po-QEsE-32" value="Нет" style="elbow=horizontal;align=left;verticalAlign=top;endArrow=open;endSize=8;strokeColor=#FF0000;endFill=1;rounded=0;entryX=0.5;entryY=0;entryDx=0;entryDy=0;exitX=1;exitY=0.5;exitDx=0;exitDy=0;" parent="yIj8lRWFxCpw4po-QEsE-29" edge="1">
          <mxGeometry x="-0.5712" y="-20" relative="1" as="geometry">
            <mxPoint x="189.64285714285734" y="325" as="targetPoint" />
            <Array as="points">
              <mxPoint x="255.5" y="212" />
              <mxPoint x="255.5" y="312" />
              <mxPoint x="95.5" y="312" />
            </Array>
            <mxPoint as="offset" />
            <mxPoint x="230" y="212" as="sourcePoint" />
          </mxGeometry>
        </mxCell>
        <mxCell id="tYPvXyNMyAclM_ogBzkL-39" value="Редактирование&#xa;признаков" style="" parent="yIj8lRWFxCpw4po-QEsE-29" vertex="1">
          <mxGeometry x="70" y="890" width="106" height="60" as="geometry" />
        </mxCell>
        <mxCell id="yIj8lRWFxCpw4po-QEsE-37" value="ё" style="ellipse;html=1;shape=endState;fillColor=#000000;strokeColor=#ff0000;" parent="yIj8lRWFxCpw4po-QEsE-1" vertex="1">
          <mxGeometry x="510" y="510" width="30" height="30" as="geometry" />
        </mxCell>
        <mxCell id="yIj8lRWFxCpw4po-QEsE-38" value="" style="elbow=horizontal;verticalAlign=bottom;endArrow=open;endSize=8;strokeColor=#FF0000;endFill=1;rounded=0;entryX=0.5;entryY=0;entryDx=0;entryDy=0;exitX=0.5;exitY=1;exitDx=0;exitDy=0;" parent="yIj8lRWFxCpw4po-QEsE-1" source="yIj8lRWFxCpw4po-QEsE-7" target="yIj8lRWFxCpw4po-QEsE-37" edge="1">
          <mxGeometry x="315.5" y="182" as="geometry">
            <mxPoint x="795.3571428571429" y="400" as="targetPoint" />
            <mxPoint x="549" y="660" as="sourcePoint" />
          </mxGeometry>
        </mxCell>
        <mxCell id="tYPvXyNMyAclM_ogBzkL-32" value="" style="elbow=horizontal;verticalAlign=bottom;endArrow=open;endSize=8;strokeColor=#FF0000;endFill=1;rounded=0;exitX=0.5;exitY=1;exitDx=0;exitDy=0;entryX=0.5;entryY=0;entryDx=0;entryDy=0;" parent="yIj8lRWFxCpw4po-QEsE-1" source="tYPvXyNMyAclM_ogBzkL-28" target="tYPvXyNMyAclM_ogBzkL-31" edge="1">
          <mxGeometry x="-384.5" y="-88" as="geometry">
            <mxPoint x="930" y="810" as="targetPoint" />
            <mxPoint x="910" y="950" as="sourcePoint" />
            <Array as="points">
              <mxPoint x="789" y="1150" />
              <mxPoint x="670" y="1150" />
              <mxPoint x="670" y="1000" />
              <mxPoint x="550" y="1000" />
            </Array>
          </mxGeometry>
        </mxCell>
        <mxCell id="tYPvXyNMyAclM_ogBzkL-37" value="Да" style="elbow=horizontal;align=left;verticalAlign=top;endArrow=open;endSize=8;strokeColor=#FF0000;endFill=1;rounded=0;exitX=0.5;exitY=1;exitDx=0;exitDy=0;edgeStyle=orthogonalEdgeStyle;" parent="yIj8lRWFxCpw4po-QEsE-1" source="tYPvXyNMyAclM_ogBzkL-35" edge="1">
          <mxGeometry x="-0.6925" y="-20" relative="1" as="geometry">
            <mxPoint x="549" y="1220" as="targetPoint" />
            <mxPoint x="798.9999999999998" y="881.9999999999998" as="sourcePoint" />
            <mxPoint as="offset" />
            <Array as="points" />
          </mxGeometry>
        </mxCell>
        <mxCell id="tYPvXyNMyAclM_ogBzkL-38" value="Нет" style="elbow=horizontal;align=left;verticalAlign=top;endArrow=open;endSize=8;strokeColor=#FF0000;endFill=1;rounded=0;exitX=1;exitY=0.5;exitDx=0;exitDy=0;entryX=0.5;entryY=0;entryDx=0;entryDy=0;" parent="yIj8lRWFxCpw4po-QEsE-1" source="tYPvXyNMyAclM_ogBzkL-35" target="tYPvXyNMyAclM_ogBzkL-39" edge="1">
          <mxGeometry x="-0.9681" y="24" relative="1" as="geometry">
            <mxPoint x="1020" y="1190" as="targetPoint" />
            <Array as="points">
              <mxPoint x="621" y="1124" />
              <mxPoint x="621" y="1190" />
              <mxPoint x="860" y="1190" />
              <mxPoint x="860" y="1100" />
              <mxPoint x="1093" y="1100" />
            </Array>
            <mxPoint as="offset" />
            <mxPoint x="819.9999999999998" y="1281.9999999999998" as="sourcePoint" />
          </mxGeometry>
        </mxCell>
        <mxCell id="tYPvXyNMyAclM_ogBzkL-41" value="" style="elbow=horizontal;verticalAlign=bottom;endArrow=open;endSize=8;strokeColor=#FF0000;endFill=1;rounded=0;exitX=0.5;exitY=1;exitDx=0;exitDy=0;" parent="yIj8lRWFxCpw4po-QEsE-1" source="tYPvXyNMyAclM_ogBzkL-39" edge="1">
          <mxGeometry x="-789.5" y="13" as="geometry">
            <mxPoint x="550" y="1210" as="targetPoint" />
            <mxPoint x="798.9999999999998" y="980" as="sourcePoint" />
            <Array as="points">
              <mxPoint x="1093" y="1210" />
            </Array>
          </mxGeometry>
        </mxCell>
        <mxCell id="tYPvXyNMyAclM_ogBzkL-51" value="Да" style="elbow=horizontal;align=left;verticalAlign=top;endArrow=open;endSize=8;strokeColor=#FF0000;endFill=1;rounded=0;exitX=0.5;exitY=1;exitDx=0;exitDy=0;edgeStyle=orthogonalEdgeStyle;" parent="yIj8lRWFxCpw4po-QEsE-1" source="tYPvXyNMyAclM_ogBzkL-44" edge="1">
          <mxGeometry x="-0.6233" relative="1" as="geometry">
            <mxPoint x="780" y="1300" as="targetPoint" />
            <mxPoint x="558.9999999999998" y="1154" as="sourcePoint" />
            <mxPoint as="offset" />
            <Array as="points">
              <mxPoint x="549" y="1270" />
              <mxPoint x="780" y="1270" />
            </Array>
          </mxGeometry>
        </mxCell>
      </root>
    </mxGraphModel>
  </diagram>
  <diagram id="BaiKqZ0CsuFH8xj1jjTb" name="Page-3">
    <mxGraphModel dx="782" dy="437" grid="1" gridSize="10" guides="1" tooltips="1" connect="1" arrows="1" fold="1" page="1" pageScale="1" pageWidth="1654" pageHeight="1169" math="0" shadow="0">
      <root>
        <mxCell id="FX_Dq99v5fCcRgNtQ_Y3-0" />
        <mxCell id="FX_Dq99v5fCcRgNtQ_Y3-1" parent="FX_Dq99v5fCcRgNtQ_Y3-0" />
        <mxCell id="CTgxfD3vMxIwQzvGmCU1-0" value="Клиент" style="swimlane;whiteSpace=wrap" parent="FX_Dq99v5fCcRgNtQ_Y3-1" vertex="1">
          <mxGeometry x="410" y="240" width="280" height="620" as="geometry" />
        </mxCell>
        <mxCell id="CTgxfD3vMxIwQzvGmCU1-1" value="" style="ellipse;shape=startState;fillColor=#000000;strokeColor=#ff0000;" parent="CTgxfD3vMxIwQzvGmCU1-0" vertex="1">
          <mxGeometry x="100" y="40" width="30" height="30" as="geometry" />
        </mxCell>
        <mxCell id="CTgxfD3vMxIwQzvGmCU1-2" value="" style="edgeStyle=elbowEdgeStyle;elbow=horizontal;verticalAlign=bottom;endArrow=open;endSize=8;strokeColor=#FF0000;endFill=1;rounded=0" parent="CTgxfD3vMxIwQzvGmCU1-0" source="CTgxfD3vMxIwQzvGmCU1-1" target="CTgxfD3vMxIwQzvGmCU1-3" edge="1">
          <mxGeometry x="100" y="40" as="geometry">
            <mxPoint x="115" y="110" as="targetPoint" />
          </mxGeometry>
        </mxCell>
        <mxCell id="CTgxfD3vMxIwQzvGmCU1-3" value="Нажатие на кнопку&#xa;&quot;Получение&#xa;объяснения&#xa;рекомендаций&quot;" style="" parent="CTgxfD3vMxIwQzvGmCU1-0" vertex="1">
          <mxGeometry x="56" y="110" width="120" height="60" as="geometry" />
        </mxCell>
        <mxCell id="CTgxfD3vMxIwQzvGmCU1-4" value="Вывод объяснений&#xa;рекомендаций" style="" parent="CTgxfD3vMxIwQzvGmCU1-0" vertex="1">
          <mxGeometry x="60" y="202" width="110" height="50" as="geometry" />
        </mxCell>
        <mxCell id="CTgxfD3vMxIwQzvGmCU1-7" value="ё" style="ellipse;html=1;shape=endState;fillColor=#000000;strokeColor=#ff0000;" parent="CTgxfD3vMxIwQzvGmCU1-0" vertex="1">
          <mxGeometry x="120" y="570" width="30" height="30" as="geometry" />
        </mxCell>
        <mxCell id="CTgxfD3vMxIwQzvGmCU1-8" value="" style="elbow=horizontal;verticalAlign=bottom;endArrow=open;endSize=8;strokeColor=#FF0000;endFill=1;rounded=0;exitX=0.5;exitY=1;exitDx=0;exitDy=0;" parent="CTgxfD3vMxIwQzvGmCU1-0" source="YKY5NmKsNz0kPQ6Kw-vD-0" target="CTgxfD3vMxIwQzvGmCU1-7" edge="1">
          <mxGeometry x="-479.5" y="-18" as="geometry">
            <mxPoint x="550" y="890" as="targetPoint" />
            <mxPoint x="140" y="618" as="sourcePoint" />
          </mxGeometry>
        </mxCell>
        <mxCell id="YKY5NmKsNz0kPQ6Kw-vD-0" value="Вывод объяснений&#xa;рекомендаций" style="" parent="CTgxfD3vMxIwQzvGmCU1-0" vertex="1">
          <mxGeometry x="80" y="490" width="110" height="50" as="geometry" />
        </mxCell>
        <mxCell id="CTgxfD3vMxIwQzvGmCU1-15" value="Система" style="swimlane;whiteSpace=wrap" parent="FX_Dq99v5fCcRgNtQ_Y3-1" vertex="1">
          <mxGeometry x="690" y="240" width="280" height="620" as="geometry" />
        </mxCell>
        <mxCell id="CTgxfD3vMxIwQzvGmCU1-16" value="Поиск признаков&#xa;по хешу&#xa;изображения" style="" parent="CTgxfD3vMxIwQzvGmCU1-15" vertex="1">
          <mxGeometry x="100" y="115" width="110" height="50" as="geometry" />
        </mxCell>
        <mxCell id="CTgxfD3vMxIwQzvGmCU1-17" value="Рекомендации сделаны?" style="rhombus;fillColor=#ffffc0;strokeColor=#ff0000;" parent="CTgxfD3vMxIwQzvGmCU1-15" vertex="1">
          <mxGeometry x="72.5" y="202" width="165" height="38" as="geometry" />
        </mxCell>
        <mxCell id="CTgxfD3vMxIwQzvGmCU1-18" value="Нет" style="elbow=horizontal;align=left;verticalAlign=top;endArrow=open;endSize=8;strokeColor=#FF0000;endFill=1;rounded=0;entryX=0.5;entryY=0;entryDx=0;entryDy=0;exitX=1;exitY=0.5;exitDx=0;exitDy=0;" parent="CTgxfD3vMxIwQzvGmCU1-15" source="CTgxfD3vMxIwQzvGmCU1-17" target="CTgxfD3vMxIwQzvGmCU1-20" edge="1">
          <mxGeometry x="-0.5712" y="-20" relative="1" as="geometry">
            <mxPoint x="189.64285714285734" y="325" as="targetPoint" />
            <Array as="points">
              <mxPoint x="256" y="222" />
              <mxPoint x="255.5" y="312" />
              <mxPoint x="95.5" y="312" />
            </Array>
            <mxPoint as="offset" />
          </mxGeometry>
        </mxCell>
        <mxCell id="CTgxfD3vMxIwQzvGmCU1-19" value="" style="endArrow=open;strokeColor=#FF0000;endFill=1;rounded=0" parent="CTgxfD3vMxIwQzvGmCU1-15" source="CTgxfD3vMxIwQzvGmCU1-16" target="CTgxfD3vMxIwQzvGmCU1-17" edge="1">
          <mxGeometry relative="1" as="geometry" />
        </mxCell>
        <mxCell id="CTgxfD3vMxIwQzvGmCU1-20" value="Применение правил&#xa;для признаков" style="" parent="CTgxfD3vMxIwQzvGmCU1-15" vertex="1">
          <mxGeometry x="40" y="332" width="110" height="50" as="geometry" />
        </mxCell>
        <mxCell id="CTgxfD3vMxIwQzvGmCU1-22" value="" style="elbow=horizontal;verticalAlign=bottom;endArrow=open;endSize=8;strokeColor=#FF0000;endFill=1;rounded=0;exitX=0.5;exitY=1;exitDx=0;exitDy=0;entryX=0.5;entryY=0;entryDx=0;entryDy=0;" parent="CTgxfD3vMxIwQzvGmCU1-15" source="CTgxfD3vMxIwQzvGmCU1-20" edge="1">
          <mxGeometry x="-394.5" y="-98" as="geometry">
            <mxPoint x="95" y="402" as="targetPoint" />
            <mxPoint x="85" y="80" as="sourcePoint" />
          </mxGeometry>
        </mxCell>
        <mxCell id="CTgxfD3vMxIwQzvGmCU1-24" value="Составление&#xa;объяснений" style="" parent="CTgxfD3vMxIwQzvGmCU1-15" vertex="1">
          <mxGeometry x="42" y="400" width="110" height="50" as="geometry" />
        </mxCell>
        <mxCell id="CTgxfD3vMxIwQzvGmCU1-37" value="" style="endArrow=open;strokeColor=#FF0000;endFill=1;rounded=0;entryX=0;entryY=0.5;entryDx=0;entryDy=0;edgeStyle=orthogonalEdgeStyle;" parent="FX_Dq99v5fCcRgNtQ_Y3-1" source="CTgxfD3vMxIwQzvGmCU1-3" target="CTgxfD3vMxIwQzvGmCU1-16" edge="1">
          <mxGeometry relative="1" as="geometry">
            <mxPoint x="525" y="460" as="targetPoint" />
          </mxGeometry>
        </mxCell>
        <mxCell id="CTgxfD3vMxIwQzvGmCU1-38" value="Да" style="elbow=horizontal;align=left;verticalAlign=top;endArrow=open;endSize=8;strokeColor=#FF0000;endFill=1;rounded=0;exitX=0.5;exitY=1;exitDx=0;exitDy=0;entryX=0.5;entryY=0;entryDx=0;entryDy=0;edgeStyle=orthogonalEdgeStyle;" parent="FX_Dq99v5fCcRgNtQ_Y3-1" source="CTgxfD3vMxIwQzvGmCU1-17" target="CTgxfD3vMxIwQzvGmCU1-4" edge="1">
          <mxGeometry x="-0.6925" y="-20" relative="1" as="geometry">
            <mxPoint x="555.5" y="432" as="targetPoint" />
            <mxPoint x="930.0000000000002" y="462" as="sourcePoint" />
            <Array as="points">
              <mxPoint x="845" y="512" />
              <mxPoint x="616" y="512" />
              <mxPoint x="616" y="422" />
              <mxPoint x="525" y="422" />
            </Array>
            <mxPoint as="offset" />
          </mxGeometry>
        </mxCell>
        <mxCell id="CTgxfD3vMxIwQzvGmCU1-43" value="ё" style="ellipse;html=1;shape=endState;fillColor=#000000;strokeColor=#ff0000;" parent="FX_Dq99v5fCcRgNtQ_Y3-1" vertex="1">
          <mxGeometry x="510" y="510" width="30" height="30" as="geometry" />
        </mxCell>
        <mxCell id="CTgxfD3vMxIwQzvGmCU1-44" value="" style="elbow=horizontal;verticalAlign=bottom;endArrow=open;endSize=8;strokeColor=#FF0000;endFill=1;rounded=0;entryX=0.5;entryY=0;entryDx=0;entryDy=0;exitX=0.5;exitY=1;exitDx=0;exitDy=0;" parent="FX_Dq99v5fCcRgNtQ_Y3-1" source="CTgxfD3vMxIwQzvGmCU1-4" target="CTgxfD3vMxIwQzvGmCU1-43" edge="1">
          <mxGeometry x="315.5" y="182" as="geometry">
            <mxPoint x="795.3571428571429" y="400" as="targetPoint" />
            <mxPoint x="549" y="660" as="sourcePoint" />
          </mxGeometry>
        </mxCell>
        <mxCell id="CTgxfD3vMxIwQzvGmCU1-28" value="Да" style="elbow=horizontal;align=left;verticalAlign=top;endArrow=open;endSize=8;strokeColor=#FF0000;endFill=1;rounded=0;exitX=0.5;exitY=1;exitDx=0;exitDy=0;edgeStyle=orthogonalEdgeStyle;entryX=0.5;entryY=0;entryDx=0;entryDy=0;" parent="FX_Dq99v5fCcRgNtQ_Y3-1" source="CTgxfD3vMxIwQzvGmCU1-24" target="YKY5NmKsNz0kPQ6Kw-vD-0" edge="1">
          <mxGeometry x="-0.6925" y="-20" relative="1" as="geometry">
            <mxPoint x="810" y="910" as="targetPoint" />
            <mxPoint x="789" y="872" as="sourcePoint" />
            <mxPoint as="offset" />
            <Array as="points" />
          </mxGeometry>
        </mxCell>
      </root>
    </mxGraphModel>
  </diagram>
  <diagram id="xttzf2DqkMLzEq6_S8-S" name="Page-4">
    <mxGraphModel dx="782" dy="437" grid="1" gridSize="10" guides="1" tooltips="1" connect="1" arrows="1" fold="1" page="1" pageScale="1" pageWidth="1654" pageHeight="1169" math="0" shadow="0">
      <root>
        <mxCell id="bjbZ9XHupbJdNILRa_hM-0" />
        <mxCell id="bjbZ9XHupbJdNILRa_hM-1" parent="bjbZ9XHupbJdNILRa_hM-0" />
        <mxCell id="bjbZ9XHupbJdNILRa_hM-10" value="Предложение" style="swimlane;html=1;fontStyle=1;align=center;verticalAlign=top;childLayout=stackLayout;horizontal=1;startSize=26;horizontalStack=0;resizeParent=1;resizeLast=0;collapsible=1;marginBottom=0;swimlaneFillColor=#ffffff;rounded=0;shadow=0;comic=0;labelBackgroundColor=none;strokeWidth=1;fillColor=none;fontFamily=Verdana;fontSize=12" parent="bjbZ9XHupbJdNILRa_hM-1" vertex="1">
          <mxGeometry x="685" y="240" width="160" height="144.5" as="geometry" />
        </mxCell>
        <mxCell id="bjbZ9XHupbJdNILRa_hM-12" value="+ Абзац" style="text;html=1;strokeColor=none;fillColor=none;align=left;verticalAlign=top;spacingLeft=4;spacingRight=4;whiteSpace=wrap;overflow=hidden;rotatable=0;points=[[0,0.5],[1,0.5]];portConstraint=eastwest;" parent="bjbZ9XHupbJdNILRa_hM-10" vertex="1">
          <mxGeometry y="26" width="160" height="26" as="geometry" />
        </mxCell>
        <mxCell id="bjbZ9XHupbJdNILRa_hM-13" value="+ Текст предложения" style="text;html=1;strokeColor=none;fillColor=none;align=left;verticalAlign=top;spacingLeft=4;spacingRight=4;whiteSpace=wrap;overflow=hidden;rotatable=0;points=[[0,0.5],[1,0.5]];portConstraint=eastwest;" parent="bjbZ9XHupbJdNILRa_hM-10" vertex="1">
          <mxGeometry y="52" width="160" height="26" as="geometry" />
        </mxCell>
        <mxCell id="bjbZ9XHupbJdNILRa_hM-14" value="+ Кол-во лексем" style="text;html=1;strokeColor=none;fillColor=none;align=left;verticalAlign=top;spacingLeft=4;spacingRight=4;whiteSpace=wrap;overflow=hidden;rotatable=0;points=[[0,0.5],[1,0.5]];portConstraint=eastwest;" parent="bjbZ9XHupbJdNILRa_hM-10" vertex="1">
          <mxGeometry y="78" width="160" height="26" as="geometry" />
        </mxCell>
        <mxCell id="bjbZ9XHupbJdNILRa_hM-15" value="+ Номер в абзаце" style="text;html=1;strokeColor=none;fillColor=none;align=left;verticalAlign=top;spacingLeft=4;spacingRight=4;whiteSpace=wrap;overflow=hidden;rotatable=0;points=[[0,0.5],[1,0.5]];portConstraint=eastwest;" parent="bjbZ9XHupbJdNILRa_hM-10" vertex="1">
          <mxGeometry y="104" width="160" height="26" as="geometry" />
        </mxCell>
        <mxCell id="bjbZ9XHupbJdNILRa_hM-17" value="Абзац" style="swimlane;html=1;fontStyle=1;align=center;verticalAlign=top;childLayout=stackLayout;horizontal=1;startSize=26;horizontalStack=0;resizeParent=1;resizeLast=0;collapsible=1;marginBottom=0;swimlaneFillColor=#ffffff;rounded=0;shadow=0;comic=0;labelBackgroundColor=none;strokeWidth=1;fillColor=none;fontFamily=Verdana;fontSize=12" parent="bjbZ9XHupbJdNILRa_hM-1" vertex="1">
          <mxGeometry x="680" y="60" width="170" height="117" as="geometry" />
        </mxCell>
        <mxCell id="bjbZ9XHupbJdNILRa_hM-19" value="+ Текст" style="text;html=1;strokeColor=none;fillColor=none;align=left;verticalAlign=top;spacingLeft=4;spacingRight=4;whiteSpace=wrap;overflow=hidden;rotatable=0;points=[[0,0.5],[1,0.5]];portConstraint=eastwest;" parent="bjbZ9XHupbJdNILRa_hM-17" vertex="1">
          <mxGeometry y="26" width="170" height="26" as="geometry" />
        </mxCell>
        <mxCell id="bjbZ9XHupbJdNILRa_hM-58" value="+ Количество предложений" style="text;html=1;strokeColor=none;fillColor=none;align=left;verticalAlign=top;spacingLeft=4;spacingRight=4;whiteSpace=wrap;overflow=hidden;rotatable=0;points=[[0,0.5],[1,0.5]];portConstraint=eastwest;" parent="bjbZ9XHupbJdNILRa_hM-17" vertex="1">
          <mxGeometry y="52" width="170" height="26" as="geometry" />
        </mxCell>
        <mxCell id="E5k4XAlPXZkDvpBI2gcZ-0" value="+ Номер в тексте" style="text;html=1;strokeColor=none;fillColor=none;align=left;verticalAlign=top;spacingLeft=4;spacingRight=4;whiteSpace=wrap;overflow=hidden;rotatable=0;points=[[0,0.5],[1,0.5]];portConstraint=eastwest;" parent="bjbZ9XHupbJdNILRa_hM-17" vertex="1">
          <mxGeometry y="78" width="170" height="26" as="geometry" />
        </mxCell>
        <mxCell id="bjbZ9XHupbJdNILRa_hM-50" style="rounded=0;orthogonalLoop=1;jettySize=auto;html=1;endArrow=classic;endFill=1;startArrow=none;startFill=0;" parent="bjbZ9XHupbJdNILRa_hM-1" source="bjbZ9XHupbJdNILRa_hM-17" target="bjbZ9XHupbJdNILRa_hM-10" edge="1">
          <mxGeometry relative="1" as="geometry">
            <mxPoint x="910" y="190" as="targetPoint" />
          </mxGeometry>
        </mxCell>
        <mxCell id="bjbZ9XHupbJdNILRa_hM-54" style="edgeStyle=none;rounded=0;orthogonalLoop=1;jettySize=auto;html=1;endArrow=classic;endFill=1;" parent="bjbZ9XHupbJdNILRa_hM-1" source="bjbZ9XHupbJdNILRa_hM-40" target="E5k4XAlPXZkDvpBI2gcZ-1" edge="1">
          <mxGeometry relative="1" as="geometry">
            <mxPoint x="450" y="370.9999999999999" as="sourcePoint" />
          </mxGeometry>
        </mxCell>
        <mxCell id="bjbZ9XHupbJdNILRa_hM-56" style="edgeStyle=none;rounded=0;orthogonalLoop=1;jettySize=auto;html=1;endArrow=classic;endFill=1;startArrow=none;startFill=0;" parent="bjbZ9XHupbJdNILRa_hM-1" source="bjbZ9XHupbJdNILRa_hM-34" target="bjbZ9XHupbJdNILRa_hM-17" edge="1">
          <mxGeometry relative="1" as="geometry">
            <mxPoint x="690" y="219" as="targetPoint" />
            <mxPoint x="630" y="110" as="sourcePoint" />
          </mxGeometry>
        </mxCell>
        <mxCell id="bjbZ9XHupbJdNILRa_hM-40" value="Правила" style="swimlane;html=1;fontStyle=1;align=center;verticalAlign=top;childLayout=stackLayout;horizontal=1;startSize=26;horizontalStack=0;resizeParent=1;resizeLast=0;collapsible=1;marginBottom=0;swimlaneFillColor=#ffffff;rounded=0;shadow=0;comic=0;labelBackgroundColor=none;strokeWidth=1;fillColor=none;fontFamily=Verdana;fontSize=12" parent="bjbZ9XHupbJdNILRa_hM-1" vertex="1">
          <mxGeometry x="440" y="514.25" width="160" height="135.75" as="geometry" />
        </mxCell>
        <mxCell id="E5k4XAlPXZkDvpBI2gcZ-10" value="+ Название" style="text;html=1;strokeColor=none;fillColor=none;align=left;verticalAlign=top;spacingLeft=4;spacingRight=4;whiteSpace=wrap;overflow=hidden;rotatable=0;points=[[0,0.5],[1,0.5]];portConstraint=eastwest;" parent="bjbZ9XHupbJdNILRa_hM-40" vertex="1">
          <mxGeometry y="26" width="160" height="26" as="geometry" />
        </mxCell>
        <mxCell id="E5k4XAlPXZkDvpBI2gcZ-12" value="+ Приоритет" style="text;html=1;strokeColor=none;fillColor=none;align=left;verticalAlign=top;spacingLeft=4;spacingRight=4;whiteSpace=wrap;overflow=hidden;rotatable=0;points=[[0,0.5],[1,0.5]];portConstraint=eastwest;" parent="bjbZ9XHupbJdNILRa_hM-40" vertex="1">
          <mxGeometry y="52" width="160" height="26" as="geometry" />
        </mxCell>
        <mxCell id="E5k4XAlPXZkDvpBI2gcZ-13" value="+ Подчиненный член предложения" style="text;html=1;strokeColor=none;fillColor=none;align=left;verticalAlign=top;spacingLeft=4;spacingRight=4;whiteSpace=wrap;overflow=hidden;rotatable=0;points=[[0,0.5],[1,0.5]];portConstraint=eastwest;" parent="bjbZ9XHupbJdNILRa_hM-40" vertex="1">
          <mxGeometry y="78" width="160" height="42" as="geometry" />
        </mxCell>
        <mxCell id="bjbZ9XHupbJdNILRa_hM-34" value="Текст" style="swimlane;html=1;fontStyle=1;align=center;verticalAlign=top;childLayout=stackLayout;horizontal=1;startSize=26;horizontalStack=0;resizeParent=1;resizeLast=0;collapsible=1;marginBottom=0;swimlaneFillColor=#ffffff;rounded=0;shadow=0;comic=0;labelBackgroundColor=none;strokeWidth=1;fillColor=none;fontFamily=Verdana;fontSize=12" parent="bjbZ9XHupbJdNILRa_hM-1" vertex="1">
          <mxGeometry x="440" y="60" width="160" height="120" as="geometry" />
        </mxCell>
        <mxCell id="bjbZ9XHupbJdNILRa_hM-36" value="+ Файл оригинала" style="text;html=1;strokeColor=none;fillColor=none;align=left;verticalAlign=top;spacingLeft=4;spacingRight=4;whiteSpace=wrap;overflow=hidden;rotatable=0;points=[[0,0.5],[1,0.5]];portConstraint=eastwest;" parent="bjbZ9XHupbJdNILRa_hM-34" vertex="1">
          <mxGeometry y="26" width="160" height="26" as="geometry" />
        </mxCell>
        <mxCell id="bjbZ9XHupbJdNILRa_hM-37" value="+ Кол-во абзацев" style="text;html=1;strokeColor=none;fillColor=none;align=left;verticalAlign=top;spacingLeft=4;spacingRight=4;whiteSpace=wrap;overflow=hidden;rotatable=0;points=[[0,0.5],[1,0.5]];portConstraint=eastwest;" parent="bjbZ9XHupbJdNILRa_hM-34" vertex="1">
          <mxGeometry y="52" width="160" height="26" as="geometry" />
        </mxCell>
        <mxCell id="bjbZ9XHupbJdNILRa_hM-38" value="+ Кол-во предложений" style="text;html=1;strokeColor=none;fillColor=none;align=left;verticalAlign=top;spacingLeft=4;spacingRight=4;whiteSpace=wrap;overflow=hidden;rotatable=0;points=[[0,0.5],[1,0.5]];portConstraint=eastwest;" parent="bjbZ9XHupbJdNILRa_hM-34" vertex="1">
          <mxGeometry y="78" width="160" height="26" as="geometry" />
        </mxCell>
        <mxCell id="E5k4XAlPXZkDvpBI2gcZ-1" value="Лексема" style="swimlane;html=1;fontStyle=1;align=center;verticalAlign=top;childLayout=stackLayout;horizontal=1;startSize=26;horizontalStack=0;resizeParent=1;resizeLast=0;collapsible=1;marginBottom=0;swimlaneFillColor=#ffffff;rounded=0;shadow=0;comic=0;labelBackgroundColor=none;strokeWidth=1;fillColor=none;fontFamily=Verdana;fontSize=12" parent="bjbZ9XHupbJdNILRa_hM-1" vertex="1">
          <mxGeometry x="687.5" y="440" width="155" height="210" as="geometry" />
        </mxCell>
        <mxCell id="E5k4XAlPXZkDvpBI2gcZ-2" value="+ Предложение" style="text;html=1;strokeColor=none;fillColor=none;align=left;verticalAlign=top;spacingLeft=4;spacingRight=4;whiteSpace=wrap;overflow=hidden;rotatable=0;points=[[0,0.5],[1,0.5]];portConstraint=eastwest;" parent="E5k4XAlPXZkDvpBI2gcZ-1" vertex="1">
          <mxGeometry y="26" width="155" height="26" as="geometry" />
        </mxCell>
        <mxCell id="E5k4XAlPXZkDvpBI2gcZ-3" value="+ Тело лексемы" style="text;html=1;strokeColor=none;fillColor=none;align=left;verticalAlign=top;spacingLeft=4;spacingRight=4;whiteSpace=wrap;overflow=hidden;rotatable=0;points=[[0,0.5],[1,0.5]];portConstraint=eastwest;" parent="E5k4XAlPXZkDvpBI2gcZ-1" vertex="1">
          <mxGeometry y="52" width="155" height="26" as="geometry" />
        </mxCell>
        <mxCell id="E5k4XAlPXZkDvpBI2gcZ-4" value="+ Последующая лексема" style="text;html=1;strokeColor=none;fillColor=none;align=left;verticalAlign=top;spacingLeft=4;spacingRight=4;whiteSpace=wrap;overflow=hidden;rotatable=0;points=[[0,0.5],[1,0.5]];portConstraint=eastwest;" parent="E5k4XAlPXZkDvpBI2gcZ-1" vertex="1">
          <mxGeometry y="78" width="155" height="26" as="geometry" />
        </mxCell>
        <mxCell id="E5k4XAlPXZkDvpBI2gcZ-6" value="+ Родительская лексема" style="text;html=1;strokeColor=none;fillColor=none;align=left;verticalAlign=top;spacingLeft=4;spacingRight=4;whiteSpace=wrap;overflow=hidden;rotatable=0;points=[[0,0.5],[1,0.5]];portConstraint=eastwest;" parent="E5k4XAlPXZkDvpBI2gcZ-1" vertex="1">
          <mxGeometry y="104" width="155" height="26" as="geometry" />
        </mxCell>
        <mxCell id="E5k4XAlPXZkDvpBI2gcZ-11" value="+ Член предложения" style="text;html=1;strokeColor=none;fillColor=none;align=left;verticalAlign=top;spacingLeft=4;spacingRight=4;whiteSpace=wrap;overflow=hidden;rotatable=0;points=[[0,0.5],[1,0.5]];portConstraint=eastwest;" parent="E5k4XAlPXZkDvpBI2gcZ-1" vertex="1">
          <mxGeometry y="130" width="155" height="26" as="geometry" />
        </mxCell>
        <mxCell id="sDjwqQY_u0C3KGwfxiFB-0" value="+ Номер лексемы в предложении" style="text;html=1;strokeColor=none;fillColor=none;align=left;verticalAlign=top;spacingLeft=4;spacingRight=4;whiteSpace=wrap;overflow=hidden;rotatable=0;points=[[0,0.5],[1,0.5]];portConstraint=eastwest;" parent="E5k4XAlPXZkDvpBI2gcZ-1" vertex="1">
          <mxGeometry y="156" width="155" height="44" as="geometry" />
        </mxCell>
        <mxCell id="E5k4XAlPXZkDvpBI2gcZ-9" style="edgeStyle=none;rounded=0;orthogonalLoop=1;jettySize=auto;html=1;endArrow=classic;endFill=1;" parent="bjbZ9XHupbJdNILRa_hM-1" source="bjbZ9XHupbJdNILRa_hM-10" target="E5k4XAlPXZkDvpBI2gcZ-1" edge="1">
          <mxGeometry relative="1" as="geometry">
            <mxPoint x="460" y="380.9999999999999" as="sourcePoint" />
            <mxPoint x="420" y="470" as="targetPoint" />
          </mxGeometry>
        </mxCell>
        <mxCell id="sDjwqQY_u0C3KGwfxiFB-1" value="Метаграф" style="swimlane;html=1;fontStyle=1;align=center;verticalAlign=top;childLayout=stackLayout;horizontal=1;startSize=26;horizontalStack=0;resizeParent=1;resizeLast=0;collapsible=1;marginBottom=0;swimlaneFillColor=#ffffff;rounded=0;shadow=0;comic=0;labelBackgroundColor=none;strokeWidth=1;fillColor=none;fontFamily=Verdana;fontSize=12" parent="bjbZ9XHupbJdNILRa_hM-1" vertex="1">
          <mxGeometry x="1120" y="390" width="155" height="260" as="geometry" />
        </mxCell>
        <mxCell id="sDjwqQY_u0C3KGwfxiFB-2" value="+ Предложение" style="text;html=1;strokeColor=none;fillColor=none;align=left;verticalAlign=top;spacingLeft=4;spacingRight=4;whiteSpace=wrap;overflow=hidden;rotatable=0;points=[[0,0.5],[1,0.5]];portConstraint=eastwest;" parent="sDjwqQY_u0C3KGwfxiFB-1" vertex="1">
          <mxGeometry y="26" width="155" height="26" as="geometry" />
        </mxCell>
        <mxCell id="sDjwqQY_u0C3KGwfxiFB-3" value="+ Номер абзаца" style="text;html=1;strokeColor=none;fillColor=none;align=left;verticalAlign=top;spacingLeft=4;spacingRight=4;whiteSpace=wrap;overflow=hidden;rotatable=0;points=[[0,0.5],[1,0.5]];portConstraint=eastwest;" parent="sDjwqQY_u0C3KGwfxiFB-1" vertex="1">
          <mxGeometry y="52" width="155" height="26" as="geometry" />
        </mxCell>
        <mxCell id="sDjwqQY_u0C3KGwfxiFB-4" value="+ Номер предложения" style="text;html=1;strokeColor=none;fillColor=none;align=left;verticalAlign=top;spacingLeft=4;spacingRight=4;whiteSpace=wrap;overflow=hidden;rotatable=0;points=[[0,0.5],[1,0.5]];portConstraint=eastwest;" parent="sDjwqQY_u0C3KGwfxiFB-1" vertex="1">
          <mxGeometry y="78" width="155" height="26" as="geometry" />
        </mxCell>
        <mxCell id="sDjwqQY_u0C3KGwfxiFB-5" value="+ Вершины" style="text;html=1;strokeColor=none;fillColor=none;align=left;verticalAlign=top;spacingLeft=4;spacingRight=4;whiteSpace=wrap;overflow=hidden;rotatable=0;points=[[0,0.5],[1,0.5]];portConstraint=eastwest;" parent="sDjwqQY_u0C3KGwfxiFB-1" vertex="1">
          <mxGeometry y="104" width="155" height="26" as="geometry" />
        </mxCell>
        <mxCell id="sDjwqQY_u0C3KGwfxiFB-6" value="+ Член предложения" style="text;html=1;strokeColor=none;fillColor=none;align=left;verticalAlign=top;spacingLeft=4;spacingRight=4;whiteSpace=wrap;overflow=hidden;rotatable=0;points=[[0,0.5],[1,0.5]];portConstraint=eastwest;" parent="sDjwqQY_u0C3KGwfxiFB-1" vertex="1">
          <mxGeometry y="130" width="155" height="26" as="geometry" />
        </mxCell>
        <mxCell id="sDjwqQY_u0C3KGwfxiFB-7" value="+ Номер лексемы в предложении" style="text;html=1;strokeColor=none;fillColor=none;align=left;verticalAlign=top;spacingLeft=4;spacingRight=4;whiteSpace=wrap;overflow=hidden;rotatable=0;points=[[0,0.5],[1,0.5]];portConstraint=eastwest;" parent="sDjwqQY_u0C3KGwfxiFB-1" vertex="1">
          <mxGeometry y="156" width="155" height="44" as="geometry" />
        </mxCell>
        <mxCell id="sDjwqQY_u0C3KGwfxiFB-43" value="+ Рёбра" style="text;html=1;strokeColor=none;fillColor=none;align=left;verticalAlign=top;spacingLeft=4;spacingRight=4;whiteSpace=wrap;overflow=hidden;rotatable=0;points=[[0,0.5],[1,0.5]];portConstraint=eastwest;" parent="sDjwqQY_u0C3KGwfxiFB-1" vertex="1">
          <mxGeometry y="200" width="155" height="26" as="geometry" />
        </mxCell>
        <mxCell id="sDjwqQY_u0C3KGwfxiFB-44" value="+ Метавершины" style="text;html=1;strokeColor=none;fillColor=none;align=left;verticalAlign=top;spacingLeft=4;spacingRight=4;whiteSpace=wrap;overflow=hidden;rotatable=0;points=[[0,0.5],[1,0.5]];portConstraint=eastwest;" parent="sDjwqQY_u0C3KGwfxiFB-1" vertex="1">
          <mxGeometry y="226" width="155" height="26" as="geometry" />
        </mxCell>
        <mxCell id="sDjwqQY_u0C3KGwfxiFB-15" value="Вершина" style="swimlane;html=1;fontStyle=1;align=center;verticalAlign=top;childLayout=stackLayout;horizontal=1;startSize=26;horizontalStack=0;resizeParent=1;resizeLast=0;collapsible=1;marginBottom=0;swimlaneFillColor=#ffffff;rounded=0;shadow=0;comic=0;labelBackgroundColor=none;strokeWidth=1;fillColor=none;fontFamily=Verdana;fontSize=12" parent="bjbZ9XHupbJdNILRa_hM-1" vertex="1">
          <mxGeometry x="890" y="230" width="155" height="130" as="geometry" />
        </mxCell>
        <mxCell id="sDjwqQY_u0C3KGwfxiFB-16" value="+ Слово" style="text;html=1;strokeColor=none;fillColor=none;align=left;verticalAlign=top;spacingLeft=4;spacingRight=4;whiteSpace=wrap;overflow=hidden;rotatable=0;points=[[0,0.5],[1,0.5]];portConstraint=eastwest;" parent="sDjwqQY_u0C3KGwfxiFB-15" vertex="1">
          <mxGeometry y="26" width="155" height="26" as="geometry" />
        </mxCell>
        <mxCell id="sDjwqQY_u0C3KGwfxiFB-17" value="+ Член предложения" style="text;html=1;strokeColor=none;fillColor=none;align=left;verticalAlign=top;spacingLeft=4;spacingRight=4;whiteSpace=wrap;overflow=hidden;rotatable=0;points=[[0,0.5],[1,0.5]];portConstraint=eastwest;" parent="sDjwqQY_u0C3KGwfxiFB-15" vertex="1">
          <mxGeometry y="52" width="155" height="26" as="geometry" />
        </mxCell>
        <mxCell id="sDjwqQY_u0C3KGwfxiFB-18" value="+ Тэг (Характеристики лексемы)" style="text;html=1;strokeColor=none;fillColor=none;align=left;verticalAlign=top;spacingLeft=4;spacingRight=4;whiteSpace=wrap;overflow=hidden;rotatable=0;points=[[0,0.5],[1,0.5]];portConstraint=eastwest;" parent="sDjwqQY_u0C3KGwfxiFB-15" vertex="1">
          <mxGeometry y="78" width="155" height="42" as="geometry" />
        </mxCell>
        <mxCell id="sDjwqQY_u0C3KGwfxiFB-22" value="Метавершина" style="swimlane;html=1;fontStyle=1;align=center;verticalAlign=top;childLayout=stackLayout;horizontal=1;startSize=26;horizontalStack=0;resizeParent=1;resizeLast=0;collapsible=1;marginBottom=0;swimlaneFillColor=#ffffff;rounded=0;shadow=0;comic=0;labelBackgroundColor=none;strokeWidth=1;fillColor=none;fontFamily=Verdana;fontSize=12" parent="bjbZ9XHupbJdNILRa_hM-1" vertex="1">
          <mxGeometry x="1120" y="60" width="155" height="210" as="geometry" />
        </mxCell>
        <mxCell id="sDjwqQY_u0C3KGwfxiFB-36" value="+ Слово" style="text;html=1;strokeColor=none;fillColor=none;align=left;verticalAlign=top;spacingLeft=4;spacingRight=4;whiteSpace=wrap;overflow=hidden;rotatable=0;points=[[0,0.5],[1,0.5]];portConstraint=eastwest;" parent="sDjwqQY_u0C3KGwfxiFB-22" vertex="1">
          <mxGeometry y="26" width="155" height="26" as="geometry" />
        </mxCell>
        <mxCell id="sDjwqQY_u0C3KGwfxiFB-38" value="+ Тэг (Характеристики лексемы)" style="text;html=1;strokeColor=none;fillColor=none;align=left;verticalAlign=top;spacingLeft=4;spacingRight=4;whiteSpace=wrap;overflow=hidden;rotatable=0;points=[[0,0.5],[1,0.5]];portConstraint=eastwest;" parent="sDjwqQY_u0C3KGwfxiFB-22" vertex="1">
          <mxGeometry y="52" width="155" height="42" as="geometry" />
        </mxCell>
        <mxCell id="sDjwqQY_u0C3KGwfxiFB-37" value="+ Член предложения" style="text;html=1;strokeColor=none;fillColor=none;align=left;verticalAlign=top;spacingLeft=4;spacingRight=4;whiteSpace=wrap;overflow=hidden;rotatable=0;points=[[0,0.5],[1,0.5]];portConstraint=eastwest;" parent="sDjwqQY_u0C3KGwfxiFB-22" vertex="1">
          <mxGeometry y="94" width="155" height="26" as="geometry" />
        </mxCell>
        <mxCell id="sDjwqQY_u0C3KGwfxiFB-39" value="+ Вершины" style="text;html=1;strokeColor=none;fillColor=none;align=left;verticalAlign=top;spacingLeft=4;spacingRight=4;whiteSpace=wrap;overflow=hidden;rotatable=0;points=[[0,0.5],[1,0.5]];portConstraint=eastwest;" parent="sDjwqQY_u0C3KGwfxiFB-22" vertex="1">
          <mxGeometry y="120" width="155" height="26" as="geometry" />
        </mxCell>
        <mxCell id="sDjwqQY_u0C3KGwfxiFB-40" value="+ Метавершины" style="text;html=1;strokeColor=none;fillColor=none;align=left;verticalAlign=top;spacingLeft=4;spacingRight=4;whiteSpace=wrap;overflow=hidden;rotatable=0;points=[[0,0.5],[1,0.5]];portConstraint=eastwest;" parent="sDjwqQY_u0C3KGwfxiFB-22" vertex="1">
          <mxGeometry y="146" width="155" height="26" as="geometry" />
        </mxCell>
        <mxCell id="sDjwqQY_u0C3KGwfxiFB-41" value="+ Рёбра" style="text;html=1;strokeColor=none;fillColor=none;align=left;verticalAlign=top;spacingLeft=4;spacingRight=4;whiteSpace=wrap;overflow=hidden;rotatable=0;points=[[0,0.5],[1,0.5]];portConstraint=eastwest;" parent="sDjwqQY_u0C3KGwfxiFB-22" vertex="1">
          <mxGeometry y="172" width="155" height="26" as="geometry" />
        </mxCell>
        <mxCell id="sDjwqQY_u0C3KGwfxiFB-29" value="Ребро" style="swimlane;html=1;fontStyle=1;align=center;verticalAlign=top;childLayout=stackLayout;horizontal=1;startSize=26;horizontalStack=0;resizeParent=1;resizeLast=0;collapsible=1;marginBottom=0;swimlaneFillColor=#ffffff;rounded=0;shadow=0;comic=0;labelBackgroundColor=none;strokeWidth=1;fillColor=none;fontFamily=Verdana;fontSize=12" parent="bjbZ9XHupbJdNILRa_hM-1" vertex="1">
          <mxGeometry x="890" y="480" width="155" height="170" as="geometry" />
        </mxCell>
        <mxCell id="sDjwqQY_u0C3KGwfxiFB-30" value="+ Начальная вершина" style="text;html=1;strokeColor=none;fillColor=none;align=left;verticalAlign=top;spacingLeft=4;spacingRight=4;whiteSpace=wrap;overflow=hidden;rotatable=0;points=[[0,0.5],[1,0.5]];portConstraint=eastwest;" parent="sDjwqQY_u0C3KGwfxiFB-29" vertex="1">
          <mxGeometry y="26" width="155" height="26" as="geometry" />
        </mxCell>
        <mxCell id="sDjwqQY_u0C3KGwfxiFB-31" value="+ Конечная вершина" style="text;html=1;strokeColor=none;fillColor=none;align=left;verticalAlign=top;spacingLeft=4;spacingRight=4;whiteSpace=wrap;overflow=hidden;rotatable=0;points=[[0,0.5],[1,0.5]];portConstraint=eastwest;" parent="sDjwqQY_u0C3KGwfxiFB-29" vertex="1">
          <mxGeometry y="52" width="155" height="26" as="geometry" />
        </mxCell>
        <mxCell id="sDjwqQY_u0C3KGwfxiFB-32" value="+ Ориентация ребра" style="text;html=1;strokeColor=none;fillColor=none;align=left;verticalAlign=top;spacingLeft=4;spacingRight=4;whiteSpace=wrap;overflow=hidden;rotatable=0;points=[[0,0.5],[1,0.5]];portConstraint=eastwest;" parent="sDjwqQY_u0C3KGwfxiFB-29" vertex="1">
          <mxGeometry y="78" width="155" height="26" as="geometry" />
        </mxCell>
        <mxCell id="sDjwqQY_u0C3KGwfxiFB-33" value="+ Союз" style="text;html=1;strokeColor=none;fillColor=none;align=left;verticalAlign=top;spacingLeft=4;spacingRight=4;whiteSpace=wrap;overflow=hidden;rotatable=0;points=[[0,0.5],[1,0.5]];portConstraint=eastwest;" parent="sDjwqQY_u0C3KGwfxiFB-29" vertex="1">
          <mxGeometry y="104" width="155" height="26" as="geometry" />
        </mxCell>
        <mxCell id="sDjwqQY_u0C3KGwfxiFB-34" value="+ Знак пунктуации" style="text;html=1;strokeColor=none;fillColor=none;align=left;verticalAlign=top;spacingLeft=4;spacingRight=4;whiteSpace=wrap;overflow=hidden;rotatable=0;points=[[0,0.5],[1,0.5]];portConstraint=eastwest;" parent="sDjwqQY_u0C3KGwfxiFB-29" vertex="1">
          <mxGeometry y="130" width="155" height="26" as="geometry" />
        </mxCell>
        <mxCell id="sDjwqQY_u0C3KGwfxiFB-45" style="edgeStyle=none;rounded=0;orthogonalLoop=1;jettySize=auto;html=1;endArrow=none;endFill=0;" parent="bjbZ9XHupbJdNILRa_hM-1" source="E5k4XAlPXZkDvpBI2gcZ-1" target="sDjwqQY_u0C3KGwfxiFB-15" edge="1">
          <mxGeometry relative="1" as="geometry">
            <mxPoint x="775" y="394.5" as="sourcePoint" />
            <mxPoint x="775" y="450" as="targetPoint" />
          </mxGeometry>
        </mxCell>
        <mxCell id="sDjwqQY_u0C3KGwfxiFB-46" style="edgeStyle=none;rounded=0;orthogonalLoop=1;jettySize=auto;html=1;endArrow=none;endFill=0;" parent="bjbZ9XHupbJdNILRa_hM-1" source="sDjwqQY_u0C3KGwfxiFB-29" target="E5k4XAlPXZkDvpBI2gcZ-1" edge="1">
          <mxGeometry relative="1" as="geometry">
            <mxPoint x="785" y="404.5" as="sourcePoint" />
            <mxPoint x="785" y="460" as="targetPoint" />
          </mxGeometry>
        </mxCell>
        <mxCell id="sDjwqQY_u0C3KGwfxiFB-47" style="edgeStyle=none;rounded=0;orthogonalLoop=1;jettySize=auto;html=1;endArrow=classic;endFill=1;" parent="bjbZ9XHupbJdNILRa_hM-1" source="sDjwqQY_u0C3KGwfxiFB-1" target="sDjwqQY_u0C3KGwfxiFB-29" edge="1">
          <mxGeometry relative="1" as="geometry">
            <mxPoint x="795" y="414.5" as="sourcePoint" />
            <mxPoint x="795" y="470" as="targetPoint" />
          </mxGeometry>
        </mxCell>
        <mxCell id="sDjwqQY_u0C3KGwfxiFB-48" style="edgeStyle=none;rounded=0;orthogonalLoop=1;jettySize=auto;html=1;endArrow=classic;endFill=1;" parent="bjbZ9XHupbJdNILRa_hM-1" source="sDjwqQY_u0C3KGwfxiFB-1" target="sDjwqQY_u0C3KGwfxiFB-15" edge="1">
          <mxGeometry relative="1" as="geometry">
            <mxPoint x="1000" y="410" as="sourcePoint" />
            <mxPoint x="805" y="480" as="targetPoint" />
          </mxGeometry>
        </mxCell>
        <mxCell id="sDjwqQY_u0C3KGwfxiFB-49" style="edgeStyle=none;rounded=0;orthogonalLoop=1;jettySize=auto;html=1;endArrow=classic;endFill=1;" parent="bjbZ9XHupbJdNILRa_hM-1" source="sDjwqQY_u0C3KGwfxiFB-1" target="sDjwqQY_u0C3KGwfxiFB-22" edge="1">
          <mxGeometry relative="1" as="geometry">
            <mxPoint x="1290" y="300" as="sourcePoint" />
            <mxPoint x="815" y="490" as="targetPoint" />
          </mxGeometry>
        </mxCell>
        <mxCell id="sDjwqQY_u0C3KGwfxiFB-50" style="edgeStyle=none;rounded=0;orthogonalLoop=1;jettySize=auto;html=1;endArrow=none;endFill=0;" parent="bjbZ9XHupbJdNILRa_hM-1" source="sDjwqQY_u0C3KGwfxiFB-29" target="sDjwqQY_u0C3KGwfxiFB-22" edge="1">
          <mxGeometry relative="1" as="geometry">
            <mxPoint x="825" y="444.5" as="sourcePoint" />
            <mxPoint x="825" y="500" as="targetPoint" />
          </mxGeometry>
        </mxCell>
        <mxCell id="sDjwqQY_u0C3KGwfxiFB-51" style="edgeStyle=none;rounded=0;orthogonalLoop=1;jettySize=auto;html=1;endArrow=classic;endFill=1;" parent="bjbZ9XHupbJdNILRa_hM-1" source="sDjwqQY_u0C3KGwfxiFB-22" target="sDjwqQY_u0C3KGwfxiFB-15" edge="1">
          <mxGeometry relative="1" as="geometry">
            <mxPoint x="1070" y="140" as="sourcePoint" />
            <mxPoint x="835" y="510" as="targetPoint" />
          </mxGeometry>
        </mxCell>
        <mxCell id="X9yhOxaEkd-_2EsPYS-B-0" value="" style="endArrow=classic;html=1;" edge="1" parent="bjbZ9XHupbJdNILRa_hM-1">
          <mxGeometry width="50" height="50" relative="1" as="geometry">
            <mxPoint x="440" y="240" as="sourcePoint" />
            <mxPoint x="510" y="240" as="targetPoint" />
          </mxGeometry>
        </mxCell>
        <mxCell id="X9yhOxaEkd-_2EsPYS-B-1" value="Связь: 1:М" style="text;html=1;align=center;verticalAlign=middle;resizable=0;points=[];autosize=1;" vertex="1" parent="bjbZ9XHupbJdNILRa_hM-1">
          <mxGeometry x="530" y="230" width="80" height="20" as="geometry" />
        </mxCell>
        <mxCell id="X9yhOxaEkd-_2EsPYS-B-3" value="Условные обозначения:" style="text;html=1;align=center;verticalAlign=middle;resizable=0;points=[];autosize=1;" vertex="1" parent="bjbZ9XHupbJdNILRa_hM-1">
          <mxGeometry x="430" y="210" width="150" height="20" as="geometry" />
        </mxCell>
        <mxCell id="X9yhOxaEkd-_2EsPYS-B-5" value="" style="endArrow=none;html=1;endFill=0;" edge="1" parent="bjbZ9XHupbJdNILRa_hM-1">
          <mxGeometry width="50" height="50" relative="1" as="geometry">
            <mxPoint x="440" y="260" as="sourcePoint" />
            <mxPoint x="510" y="260" as="targetPoint" />
          </mxGeometry>
        </mxCell>
        <mxCell id="X9yhOxaEkd-_2EsPYS-B-6" value="Связь: 1:1" style="text;html=1;align=center;verticalAlign=middle;resizable=0;points=[];autosize=1;" vertex="1" parent="bjbZ9XHupbJdNILRa_hM-1">
          <mxGeometry x="535" y="250" width="70" height="20" as="geometry" />
        </mxCell>
      </root>
    </mxGraphModel>
  </diagram>
</mxfile>
